Coordinates
version=1
nRows=5
nColumns=42
inDegrees=yes

Units are S.I. units (second, meters, Newtons, ...)
If the header above contains a line with 'inDegrees', this indicates whether rotational values are in degrees (yes) or radians (no).

endheader
time	pelvis_tilt	pelvis_list	pelvis_rotation	pelvis_tx	pelvis_ty	pelvis_tz	hip_flexion_r	hip_adduction_r	hip_rotation_r	knee_angle_r	knee_angle_r_beta	ankle_angle_r	subtalar_angle_r	mtp_angle_r	hip_flexion_l	hip_adduction_l	hip_rotation_l	knee_angle_l	knee_angle_l_beta	ankle_angle_l	subtalar_angle_l	mtp_angle_l	lumbar_extension	lumbar_bending	lumbar_rotation	sh_tx_r	sh_ty_r	sh_tz_r	sh_plane_elev_r	sh_elev_r	sh_axial_rot_r	elbow_flex_r	pro_sup_r	sh_tx_l	sh_ty_l	sh_tz_l	sh_plane_elev_l	sh_elev_l	sh_axial_rot_l	elbow_flex_l	pro_sup_l
      2.48333330	     -9.52641617	     -0.60440633	      1.77325649	      0.26576098	      0.93252246	     -0.06911236	      6.24864002	     -7.30364188	     -5.24144319	      0.39818119	      0.00694957	      3.51773448	     -3.50703232	     -7.49999987	      6.82359680	     -4.33009450	     -6.72144086	      2.05386002	      0.03584662	      9.31082394	      1.45852279	     -7.49999987	      5.79193513	      1.93850746	     -0.00815217	     -0.02039698	     -0.00630593	     -0.00730310	    -30.08999487	      4.39741336	      2.24096147	     34.03449189	    108.09987895	     -0.02391496	      0.01976371	     -0.00715299	     29.87779871	     89.31336235	      7.14713358	      5.47375933	      2.45187518
      2.50000000	     -9.71839445	     -0.53709762	      1.73056257	      0.26608851	      0.93237525	     -0.06923442	      6.42781757	     -7.38092404	     -5.13907213	      0.39167068	      0.00683594	      3.47801733	     -3.73418061	     -7.49999987	      7.02181212	     -4.24625849	     -6.99476234	      2.09882119	      0.03663134	      9.40645145	      1.86224793	     -7.49999987	      6.06031101	      2.05713165	     -0.22944007	     -0.01933043	     -0.00579328	     -0.00734229	    -31.21681251	      4.38348872	      3.34593716	     34.16545014	    110.60167877	     -0.02383784	      0.02055986	     -0.00720395	     29.08221489	     88.97015830	      9.38085202	      5.70266996	      2.44972707
      2.51666670	     -9.78720048	     -0.51505960	      1.70016133	      0.26585914	      0.93242469	     -0.06899187	      6.47051936	     -7.42663076	     -5.14558395	      0.38078576	      0.00664597	      3.47682390	     -3.77425322	     -7.49999987	      7.05222252	     -4.18787904	     -7.05459044	      2.05080311	      0.03579327	      9.43186289	      1.84612104	     -7.49999987	      6.10570299	      2.15200125	     -0.18362740	     -0.01982512	     -0.00568918	     -0.00735753	    -30.72039040	      4.36505415	      2.82133128	     33.92749322	    110.08902665	     -0.02390969	      0.02191865	     -0.00721631	     28.85531847	     88.68854266	     10.41526869	      5.90856456	      2.44589529
      2.53333330	     -9.81507108	     -0.51260260	      1.68197984	      0.26211606	      0.93245300	     -0.06473150	      6.53177131	     -7.37851445	     -5.17924671	      0.36534217	      0.00637642	      3.55646423	     -3.82178800	     -7.49999987	      7.08710675	     -4.20631109	     -7.07789952	      2.02266218	      0.03530211	      9.44137180	      1.82386153	     -7.49999987	      6.09040543	      2.17231291	     -0.14157158	     -0.01908632	     -0.00596118	     -0.00747064	    -30.68930328	      4.20134537	      2.84964038	     33.91483740	    110.10095940	     -0.02351593	      0.02302964	     -0.00715952	     28.83587360	     88.72808990	     10.42258480	      5.91292369	      2.45044270
      2.55000000	     -9.84455485	     -0.49379949	      1.71881692	      0.26594909	      0.93260858	     -0.06908630	      6.53686514	     -7.40807324	     -5.19766583	      0.37366044	      0.00652160	      3.59342048	     -3.85415096	     -7.49999987	      7.12090770	     -4.17683877	     -7.09884143	      2.02030810	      0.03526103	      9.43355496	      1.81809327	     -7.49999987	      6.09576646	      2.25282698	     -0.09800609	     -0.01905779	     -0.00611498	     -0.00747811	    -30.65814838	      4.06466744	      2.87784708	     33.90121686	    110.11152467	     -0.02353309	      0.02396271	     -0.00711914	     28.81718502	     88.77358956	     10.43528768	      5.92620724	      2.45469668
